<svg height="390" viewBox="0 0 653 390" width="653" xmlns="http://www.w3.org/2000/svg" xmlns:xlink="http://www.w3.org/1999/xlink"><mask id="a" fill="#fff"><path d="m.00319365.02648148h43.82720045v30.84441042h-43.82720045z" fill="#fff" fill-rule="evenodd"/></mask><mask id="b" fill="#fff"><path d="m0 389.973519h652.953889v-389.49203752h-652.953889z" fill="#fff" fill-rule="evenodd"/></mask><g fill="none" fill-rule="evenodd"><path d="m31.1174741 220.82243c-13.7621852-66.201778 26.6654074-136.5134819 86.3936669-168.2089263 59.728259-31.694963 133.767592-28.5966296 196.409296-3.1392593 15.168111 6.1644075 30.226926 13.6557778 46.545296 14.989 30.52063 2.4931112 59.556852-16.9293703 90.115519-14.9591481 15.771407 1.0164074 35.568 2.7410741 49.950333 9.2921111 15.925 7.2535185 30.158074 16.9438148 40.559037 31.0155926 20.279519 27.437222 34.400408 62.91037 36.168408 98.80963 1.505592 30.577926-.803111 61.747111-11.135223 90.566185-10.332592 28.818592-29.246148 55.227852-55.636629 70.746-18.308815 10.766407-39.419852 15.943296-60.51163 18.446518-21.254518 2.522-42.814778 2.459408-64.05437-.186333-31.973259-3.982333-64.119852-13.792519-95.835519-8.112-17.072852 3.05837-33.016629 10.480407-49.647963 15.403074-35.861703 10.614259-75.340777 9.194852-109.969407-4.932296-34.6291112-14.127148-64.0596668-41.045334-80.2961853-74.736037" fill="#4e7dec"/><path d="m535.787874 153.05107h-187.22937l65.364963-4.689629c6.448963-1.026037 9.290185-4.030963 13.74774-5.300148 3.963556-1.129074 8.386445-.532519 11.909445 1.606222-1.355371-3.368926-5.386815-5.890445-4.81-9.476037.358222-2.224926 2.548963-3.788297 4.772444-4.157111 2.223482-.368334 4.484037.196444 6.667074.756889 5.919334 1.520037 11.838667 3.039592 17.758 4.559629-1.769444-2.483481-2.835444-5.462407-3.043444-8.504889-.051519-.749666-.037074-1.556148.384704-2.178703.758814-1.121371 2.388148-1.113667 3.730037-.934074 14.582629 1.94374 27.718407 9.524185 40.391963 16.993888.644222-2.178703-.489186-4.666037.437666-6.741222.76026-1.702037 2.758889-2.586518 4.622704-2.540296s3.619778.849333 5.264037 1.729c5.376704 2.878296 15.977 14.256667 19.958852 18.876481" fill="#fff"/><path d="m11.9360222 92.3844037h292.2592588l-102.033629-7.3209259c-10.065852-1.6014074-14.501259-6.2915185-21.459148-8.2732963-6.186556-1.7617408-13.091-.8305556-18.59 2.5075555 2.115148-5.2592222 8.409074-9.1948518 7.508222-14.7911111-.559482-3.4734074-3.978963-5.914037-7.449963-6.4889259-3.471-.5758519-6.999296.3057407-10.406741 1.1805926-9.240111 2.3727407-18.480222 4.745-27.720333 7.1177407 2.762259-3.8768889 4.426741-8.527037 4.751259-13.2758889.080408-1.1704814.057296-2.429074-.600407-3.4011851-1.183963-1.7501852-3.728111-1.7376667-5.822556-1.4584074-22.7625183 3.0347777-43.2673702 14.8676666-63.0504813 26.5281851-1.0058148-3.4016666.7636296-7.2843333-.6827407-10.5232592-1.1868519-2.6568148-4.3068519-4.0377037-7.215963-3.965963-2.9095926.0722222-5.6511481 1.3255185-8.216963 2.6991852-8.3931851 4.4931852-24.9402592 22.2545556-31.1552222 29.4657037" fill="#fff"/><path d="m65.0134815 284.606496c16.5326296 34.306037 46.5000375 61.714371 81.7603705 76.099593 35.260333 14.384741 75.459222 15.829667 111.975259 5.021852 16.934185-5.012222 33.169259-12.569556 50.553148-15.683778 32.293926-5.784037 65.026963 4.205259 97.583297 8.259815 21.627185 2.69437 43.580333 2.757926 65.222444.189703 21.476481-2.548962 42.972704-7.81974 61.615185-18.782592 26.871963-15.801741 46.130259-42.692 56.651593-72.03637 3.517703-9.812112 6.118185-19.892889 7.969481-30.128223l-24.971074-35.353259c-4.875-6.769148-14.942296-6.638185-23.076444-4.789296s-16.953445 4.658815-24.480926 1.063592c-5.616482-2.682333-9.167408-8.404259-14.397259-11.779444-9.640223-6.221704-22.728334-3.081-32.417186 3.063667-9.689333 6.144185-17.515333 14.915814-27.292296 20.918444-9.777444 6.003111-23.040333 8.753815-32.399852 2.118519-2.967852-2.104075-5.319889-5.002593-8.365741-6.992075-10.712-6.996407-24.99274-.461259-35.16837 7.295408-10.175148 7.755704-20.971407 17.315037-33.719592 16.230741-6.189445-.52626-11.869-3.588-17.944334-4.88463-17.141222-3.658296-33.775926 6.955481-47.93437 17.288074-14.157963 10.332111-30.189852 21.470222-47.541 18.991556-16.557667-2.366-28.998185-16.559593-44.939556-21.620445-21.309407-6.763852-43.754629 3.775296-64.353852 12.465074-20.5992218 8.690259-45.8736292 15.262482-64.01537 2.196037l-.7376296 2.822445z" fill="#5487ed"/><path d="m137.144222 375.150389c35.260334 14.384741 75.459222 15.829667 111.975259 5.022333 16.934186-5.012222 33.16926-12.570037 50.553149-15.684259 32.293926-5.784037 65.026963 4.205259 97.583296 8.260296 21.627185 2.693889 43.580333 2.757445 65.222444.189222 21.476482-2.548962 42.972704-7.81974 61.615186-18.782111 17.197555-10.113037 31.270777-24.77174 41.937037-41.704481-1.784371-28.15463-9.441852-58.338222-32.304037-74.575222-15.260556-10.83863-35.280075-13.546482-53.713593-10.296963-18.433519 3.25-35.491926 11.972518-51.096259 22.310407-12.217111 8.093704-25.477593 17.704074-39.973556 15.551852-9.283444-1.378482-17.162889-7.454778-26.109296-10.292148-16.653963-5.282334-35.014778 1.338518-49.141445 11.618629-14.127148 10.281075-25.349037 23.995112-38.443407 35.562704-12.133815 10.718741-29.173444 19.940074-43.895222 13.202222-11.334556-5.187481-17.130148-18.160037-27.68663-24.788111-12.630704-7.929518-29.419963-5.067111-42.736778 1.646667-13.316814 6.714259-24.671592 16.810444-37.838185 23.814074-15.313518 8.145704-32.9405554 11.861296-50.2397035 10.657111 16.7969629 21.216963 39.2012595 38.051482 64.2917405 48.287778" fill="#76a0f4"/><path d="m158.810889 376.594833c35.260333 14.384741 75.459222 15.829667 111.975259 5.022334 16.934185-5.012223 33.169259-12.570037 50.553148-15.68426 32.293926-5.784037 65.026963 4.20526 97.583297 8.260297 21.627185 2.693889 43.580333 2.757444 65.222444.189222 21.476482-2.548963 42.972704-7.819741 61.615185-18.782111 22.656593-13.323074 39.900371-34.528963 51.058704-58.441741-.040926-.098222-.075593-.196444-.118445-.294185-3.583185-8.196741-10.954666-14.122333-18.667518-18.654519-18.479741-10.859814-42.209074-15.296185-61.410556-5.769592-14.428555 7.158666-25.933555 21.717222-42.013592 22.659963-19.456185 1.140148-34.139926-18.198556-53.172408-22.394667-12.27537-2.705926-25.29174 1.313482-35.737 8.306519-10.445259 6.993518-18.712777 16.735333-26.528666 26.580666-8.455297 10.650371-17.623185 22.298371-30.857185 25.425111-14.50463 3.426704-29.096889-4.516296-41.422815-12.894555s-25.237815-17.888482-40.141111-18.056037c-24.619593-.276371-41.329889 23.932518-62.175149 37.034592-23.372555 14.690963-55.091592 14.858037-78.618222.414556l-.481963 1.21237c15.095889 15.390074 33.365223 27.718408 53.336593 35.866037" fill="#7aa9f4"/><path d="m91.5198556 327.85143-13.7881852 8.425926 3.4469259 8.043148 32.9386297-14.937z" fill="#f3cbba"/><path d="m78.4305407 335.520804c-1.8296296.712111-3.6313333 1.580703-5.0988888 2.885518-1.4670741 1.305297-2.5797778 3.096889-2.7381852 5.05363-.1251852 1.541222.3365555 3.063185.7987777 4.538444 1.0838149 3.458482 2.2047037 6.922741 2.7752593 10.501593.4309259 2.704481.5748889 5.556296 1.9466296 7.926148.5407037.934556 1.4728519 1.848407 2.5374074 1.670741.4631852-.077519.8695556-.356297 1.2070741-.682259 1.5975556-1.538334 1.8310741-3.972704 1.9678148-6.185593.3148889-5.101778.6297778-10.203074.9451482-15.304852.0683703-1.108852.1367407-2.223481.038037-3.330407-.0948518-1.06263-.3437778-2.111297-.7376296-3.103148-.6620371-1.668334-1.7838889-3.212445-3.3655556-4.059852" fill="#1c364c"/><path d="m153.180541 347.881781-12.488185 10.254593 4.52737 7.488482 30.552407-19.354593z" fill="#f3cbba"/><path d="m141.478519 357.180874c-1.739593.973074-3.42863 2.099259-4.719963 3.617852-1.291334 1.51763-2.158482 3.475333-2.042445 5.464815.091 1.56674.768445 3.031889 1.440593 4.449852 1.575407 3.324629 3.189333 6.649259 4.265926 10.166963.813222 2.658259 1.35874 5.504296 3.070889 7.694555.675037.862815 1.740555 1.651 2.785851 1.322148.454519-.143.823815-.480518 1.117519-.855111 1.389555-1.77137 1.282185-4.250518 1.108852-6.494704-.400593-5.173037-.801185-10.345592-1.201297-15.518148-.087148-1.12474-.175259-2.254777-.429481-3.353518-.244593-1.054926-.642778-2.074222-1.177704-3.015519-.899889-1.584074-2.244666-2.978926-3.954407-3.609185" fill="#fff"/><path d="m234.861948 167.976996c4.381482 7.086445 24.977815 24.323963 30.873556 30.210074 1.765111 1.762704 3.540815 3.525889 5.512 5.055074 3.028037 2.348667 6.464852 4.10463 9.878074 5.845186 7.944444 4.051666 15.888889 8.103333 23.833333 12.155 2.580259 1.315889 5.358408 2.670296 8.234296 2.322185 1.653889-.199815 3.183556-.951889 4.665074-1.713593 2.194593-1.129074 4.411815-2.340963 6.061371-4.175889.349555-.389037.685629-.840666.711148-1.362592.05537-1.129074-1.255704-1.768-2.34963-2.052556-4.190333-1.089592-8.742259-1.51137-12.232518-4.073333 4.570704.667333 9.392741-.600889 13.044296-3.430556-6.436926-1.178666-13.151667.752556-19.575111-.500259-2.282222-.44537-4.467185-1.282667-6.638185-2.116593-3.525408-1.353444-7.088852-2.727111-10.196333-4.872592-2.377075-1.640889-4.433-3.695852-6.474-5.739741-5.034371-5.039185-10.130371-10.158296-13.662519-16.34437-2.533556-4.436852-13.627852-17.222593-17.721889-20.279519" fill="#f3cbba"/><path d="m248.818556 163.843478c18.637666-3.433445 45.614111-25.014408 45.614111-25.014408s2.452666-.980777 9.319074-4.904851c6.866889-3.923593 4.904852-17.657371 2.943296-15.204704-1.650518 2.062666-11.771741 9.809704-11.771741 9.809704s2.942815-9.319075-.490629-6.866408c-3.433445 2.452185-3.923593 8.337815-3.923593 8.337815-13.243148 14.714074-41.690518 17.166741-41.690518 17.166741z" fill="#f3cbba"/><path d="m239.923137 147.005733 12.707741-1.270629v23.509296l-24.144852-1.906185 2.541741-22.873741z" fill="#153268"/><path d="m240.107448 115.562296s13.023111 17.846111 2.894185 27.011111c-10.129407 9.164037-25.564259-12.541148-25.564259-12.541148z" fill="#f3cbba"/><path d="m223.469085 146.784733 6.659852-15.084333 16.217259 4.805185-7.207777 14.416037z" fill="#f3cbba"/><path d="m159.229393 234.689c-9.516963 2.300519-9.170778 21.555926-13.083778 30.530741-3.912519 8.975778-6.381074 18.772481-12.319185 26.557555-2.884074 3.782037-6.488445 6.944889-10.100519 10.038889-11.086111 9.495778-22.515518 18.617926-34.6238147 26.770371 3.4748518 3.69874 6.3054815 8.00174 8.3262593 12.657185 17.0978884-6.243371 34.1750744-13.71163 47.6411484-25.958111 10.750518-9.777445 18.911629-22.351334 30.695889-30.854297 1.531111 14.09826 2.846518 29.299593-4.255815 41.574-3.070408 5.306408-7.516889 9.658037-11.906556 13.937445-3.842703 3.746407-7.684926 7.492333-11.527148 11.238259-.517111.504111-1.067444 1.076593-1.118481 1.796889-.047667.672148.353888 1.284111.738111 1.837333 1.358259 1.954815 2.716518 3.908667 4.074777 5.863482.436223.628333.476186.898444 1.34526 1.169518 20.769666-6.123481 36.760629-20.397481 49.838148-37.930148 2.848444-3.81863 4.564444-8.399444 5.92463-12.965333 3.013592-10.114963 4.248111-48.618074 3.08774-59.108593-.647111-5.852889-1.80074 5.206741-2.541259-.635074-.38037-2.99963-2.420889 4.75463-3.424296 1.902815-1.234519-3.509037-3.36026-6.63337-4.839371-10.046593-1.532555-3.535518-2.381889-7.402777-4.495592-10.624852-2.113704-3.222074-6.082556-5.72337-9.747593-4.532185" fill="#8db8f7"/><path d="m212.396889 263.970489c-.002408-5.192296-.142519-9.522741-.430926-12.126593-.647111-5.852889-1.800741 5.207223-2.541259-.635074-.379889-2.999148-2.420889 4.75463-3.424297 1.902815-1.234518-3.509037-3.360259-6.632889-4.838888-10.046111-1.532556-3.536-2.382371-7.402778-4.496075-10.624852-2.113703-3.222555-6.082555-5.72337-9.747592-4.532185l-27.688074 6.780222c-3.828741.925408-6.059926 4.596704-7.615593 9.236741 4.955889-.627371 9.945-1.04 14.921111-.694778 6.02526.417926 12.077963 1.999593 17.086815 5.375741 4.243778 2.860481 7.602593 6.902518 11.915704 9.657555 4.576963 2.923556 9.972444 4.240408 15.27837 5.397889.522408.114111 1.050593.225815 1.580704.30863" fill="#79b1f2"/><path d="m48.8121111 197.190789c-2.8965926-4.218741-5.7927037-8.437-8.6892963-12.656222-2.4863704-3.621223-5.0945555-7.358482-8.8838148-9.581-3.7892593-2.221556-9.1192593-2.466148-12.2238519.641814-3.1975185 3.200889-2.8638518 8.551112-1.1695185 12.74626 1.6943334 4.195148 4.4927037 7.93 5.7195185 12.285 1.2272963 4.354518.2590371 9.904074-3.7984074 11.905592-4.990074 2.461815-12.64851848-1.19937-15.71314811 3.444519-1.95866666 2.96737.18055556 7.236667 3.37807408 8.79137 3.19751853 1.555667 6.95451853 1.183963 10.48666663.778074 3.3968519-.390963 6.7927408-.781444 10.1895926-1.172407 1.7872593-.206074 3.8374074-.328852 5.1306667.922037 2.1406667 2.069889.2359259 5.806185-2.2841482 7.391704-4.8759629 3.068481-11.0779259 2.509963-16.8191111 2.981333-5.74166663.471852-12.33940737 3.031407-13.58981478 8.655593-.31103704 1.39774-.20559259 2.973629.67840741 4.100296.67407407.858481 1.70251851 1.348148 2.69629629 1.799296 4.84514815 2.201333 10.08896298 4.245704 15.35107408 3.453185 3.5769259-.538777 6.8365556-2.351074 10.3547407-3.192703 3.5177037-.84163 7.8086667-.400111 9.8732593 2.570148 1.7472963 2.513333 1.2277778 6.134074-.6413333 8.558333s-4.8133704 3.804667-7.7898889 4.520148c-3.3506297.805519-6.8765185.873408-10.2555556.196445-4.9645555-.99426-10.0932963-3.557185-14.82866665-1.763667-4.84466666 1.834926-7.07922222 8.048444-5.46288889 12.97063 1.61633334 4.922185 6.26455556 8.409074 11.25751854 9.790926 4.9929629 1.381851 10.308037.946111 15.4127037.065 5.4238889-.936482 11.1318518-2.340963 16.2942963-.432371 5.1624444 1.908111 8.7595926 8.919445 5.1359629 13.06163-2.9201851 3.338111-8.1312592 2.685222-12.5363333 3.198481-5.1807407.603297-10.7245185 4.355963-10.5015926 9.567037.1964445 4.590445 4.9038889 7.892445 9.4745926 8.361408s9.0662963-1.101148 13.5103704-2.267297c4.4445555-1.166148 9.3527778-1.899444 13.4867778.105445 4.1344814 2.004889 6.6531111 7.761481 3.8513703 11.403407-2.7309629 3.549482-8.4904444 3.144556-11.6648518 6.303556-3.0776297 3.063185-2.4290741 8.502481.3057407 11.874778 2.7343334 3.372777 6.9530741 5.130666 11.0562593 6.550074 4.9188148 1.701555 9.9397037 3.107963 15.0265555 4.208629 6.5438148 1.416519 13.3741111 2.321223 19.9044447.845963 8.228037-1.858518 15.288963-7.415296 20.286259-14.211407 4.996815-6.79563 8.118741-14.78437 10.577185-22.853519 1.503185-4.934703 2.227815-11.460222-2.166185-14.162777-2.447852-1.50463-5.653074-1.094889-8.285815.057296-2.631778 1.151704-4.924111 2.958222-7.477407 4.275074-1.021222.526741-2.172445.984148-3.294778.73763-2.027518-.445852-2.892741-2.876852-2.97363-4.950593-.553703-14.128593 17.463334-22.999889 18.798-37.075518.096297-1.017371.088112-2.095889-.403-2.991445-.488222-.890741-1.386666-1.477185-2.298111-1.924-4.879815-2.392963-11.177111-1.508-15.208555 2.137296-1.622111 1.466593-2.914889 3.338593-4.809037 4.432519-1.893667 1.093926-4.7613707 1.026037-5.8143707-.890741-.5214444-.949481-.4675185-2.103592-.3225926-3.176815 1.3231112-9.793333 8.7788523-17.748852 11.0654073-27.362592.407333-1.713111.636037-3.562482-.016852-5.197593-1.301444-3.261074-5.704111-4.300111-8.9964812-3.080518-3.2928518 1.220074-5.7012222 4.023259-7.9275926 6.738333-2.2263703 2.714593-4.5596296 5.557741-7.7985555 6.914074-1.3038519.546482-3.016.738593-3.9510371-.32163-.4535555-.514703-.6172592-1.222-.6918889-1.90474-.7621851-6.981482 5.7382963-12.275371 9.6484074-18.109963 2.6751112-3.992926 4.2567778-8.711445 4.5288149-13.510371.0515185-.915296-.3938519-1.716-.586926-2.612518-.1935555-.896037-1.8936666-2.795482-2.5922963-2.913445-8.7157777-1.46274-14.5441111 10.626778-23.2555555 12.116963-.8478889.144926-1.7954445.183445-2.4887778-.326444-.9514074-.699593-1.0053333-2.080482-.9307037-3.259148.4314074-6.772519 2.1657037-13.460297 5.0805926-19.588593 1.4930741-3.139259 3.3217407-6.226518 3.7420741-9.677296.4198518-3.450778-1.0703334-7.459111-4.3540371-8.598778-4.0271111-1.398704-8.150037 2.145482-10.0494814 5.961222-1.8994445 3.816223-2.730963 8.26463-5.5813334 11.434704-.6345926.70537-1.9167778 1.267259-2.3828518.440556" fill="#1b54af"/><path d="m38.5841926 208.185852c20.2328148 36.759185 36.3585926 75.725963 47.9603704 116.051963 3.2832222 11.411592 6.1961851 22.926222 8.7586296 34.520778.4005926 1.814222 3.1864444 1.046259 2.7853704-.767963-9.0764074-41.067482-22.7148519-81.091593-40.6235556-119.148371-5.1181481-10.877148-10.5901852-21.58337-16.3862593-32.114333-.897-1.629333-3.3925185-.173815-2.4945555 1.457926" fill="#2c5fc4"/><path d="m407.199867 10.4592222c.929259 0 .931185-1.44444442 0-1.44444442-.92926 0-.931186 1.44444442 0 1.44444442" fill="#153268"/><path d="m358.413178 13.9838111c.579703 5.226 3.390111 9.9353704 6.544778 14.1415926 3.200888 4.2668889 7.022888 8.3512963 12.010555 10.244 4.987185 1.8927037 11.357185.9995556 14.535445-3.2846667 2.189777-2.9524444 2.514777-6.9506666 1.798333-10.5564814-1.17963-5.9400371-5.061333-11.2883334-10.343185-14.2518519" fill="#f3cbba"/><path d="m379.027759 38.6028259 6.216889 7.2434074 10.444296-10.5068889-8.119222-9.0788148z" fill="#f3cbba"/><path d="m28.7220074 22.7126852c-1.4401111-4.2018889-5.5307778-7.3599259-9.9604074-7.6902222-4.5894815-.3423334-9.47603704 2.0395555-13.63411111.0669259-1.59225926-.7554445-2.86096296-2.0925185-3.7492963-3.6144815-1.0477037-1.79448147-1.60477778-3.92359259-1.28507407-5.9771111.31874074-2.054 1.58792592-3.99822223 3.46859259-4.88318519 3.34388889-1.573 7.16492589.44055556 10.81166669 1.04048148 5.7551481.94707408 11.8189259-1.72514815 17.3906296-.00048148 2.9678519.91818519 5.473 3.03622222 7.2438889 5.58855556 1.7713704 2.55233333 2.8575926 5.52355553 3.5966667 8.54100003 1.1984074 4.8966666 1.5229259 10.0061481.9523703 15.0145185-2.5874814.415037-5.1783333-1.0106296-6.9362222-2.9543704-1.7578889-1.9437407-2.8705926-4.3665555-4.1282222-6.6661111-.4005926-.7323333-.8878519-1.5137778-1.6832593-1.7675185-1.3962963-.4453704-2.756 1.6177778-1.7964074 2.7256667" fill="#153268" mask="url(#a)" transform="translate(350.518519 .455)"/><path d="m502.626511 227.691533 14.436259 8.80726 5.186519-10.959963-17.16337-9.096149z" fill="#f3cbba"/><path d="m539.7561 207.982281 17.858148 8.916075 5.264037-11.452519-20.224148-10.718741z" fill="#f3cbba"/><path d="m558.867015 203.791419c-5.909704 9.442814-8.665704 20.823592-7.730667 31.924629.026963.319704.070778.668778.303815.889296.195481.184889.482444.235445.751593.234963 1.553259-.001444 2.741074-1.331296 3.676592-2.571111 3.765185-4.988148 7.022889-10.358111 9.707148-16.001555 1.14063-2.398741 2.184-4.863926 2.761297-7.456704.154074-.69237.274444-1.415074.119888-2.108407-.27637-1.236926-1.356333-2.11563-2.42474-2.797408-2.301-1.469-4.876926-2.505148-7.553482-3.040074" fill="#fff"/><path d="m425.545274 146.299063s7.596333 34.57037 24.053852 51.537296c16.458481 16.967408 57.820148 35.581482 57.820148 35.581482l7.179852-12.623963s-35.823185-29.117111-41.626-34.53763c-5.802333-5.420037-6.497111-21.426407-6.497111-21.426407s8.020037 13.359666 13.973555 16.602926c5.953037 3.242777 67.634186 32.924185 67.634186 32.924185l6.353629-13.343296s-41.809926-27.883075-50.194926-38.758297c-8.385481-10.875703-22.80874-26.698629-30.661222-52.723185-7.852481-26.0245555-48.035963 36.766889-48.035963 36.766889" fill="#8db8f7"/><path d="m309.230374 123.618156c-1.641852 1.560963-4.069481 1.973111-6.333889 1.930259-2.264889-.042852-4.528333-.463185-6.784074-.255185-.742444.06837-1.696259.49737-1.541222 1.226333.052481.246518.23063.444407.40637.624481 1.262926 1.295186 2.758889 2.362149 4.395445 3.133-4.578408 4.217297-12.397667 2.492149-17.33526 6.282852 2.488778 3.271667 5.588556 6.191371 9.372037 7.798556 3.783482 1.606704 8.318075 1.755481 11.903667-.254222 4.310222-2.416074 6.601593-7.417704 10.743778-10.11063 1.135815-.738111 2.417037-1.308185 3.315-2.322667.334148-.378444.607148-.811777.793963-1.281222.257592-.647592.347148-1.354407.319704-2.051111-.086667-2.176778-1.378963-4.266407-3.287556-5.315556-1.908593-1.049148-4.366074-1.02074-6.24963.072223" fill="#f3cbba"/><path d="m474.94253 113.743067c-10.323445.179111-20.462963 3.680926-29.282741 9.081222-7.553963 4.625592-14.196482 10.593555-20.141333 17.181185l.026963 6.293445s.965851 4.731518 2.872037 11.085629c3.916851-5.404148 6.904444-10.374 12.518518-13.962963 6.764815-4.325148 14.234037-6.875074 21.805333-9.548259 6.009371-2.122852 12.075556-5.030519 16.394445-9.57763-1.501741-3.307296-2.913445-6.817777-4.193222-10.552629" fill="#79b1f2"/><path d="m399.343822 33.5909889s28.652482 6.0353704 45.172593 37.8044815c12.797296 24.6109259 24.984074 25.4159629 34.945926 47.0181106 0 0-7.695037 12.099149-25.415 15.249482-17.720445 3.150333-28.592778 17.790741-28.592778 17.790741s-6.165852-5.466741-15.634667-30.204778c-9.537666-24.9190741-26.134815-30.5707038-26.134815-30.5707038s-27.530148 29.6265188-67.649592 45.8996298l-8.327704-13.574408s23.713926-16.313074 39.175741-35.1919625c15.461815-18.8784074 21.183259-29.0357408 21.183259-29.0357408s20.812519-31.1205555 31.277037-25.1848518" fill="#273d76"/><path d="m521.379637 226.029844c-5.910185 9.442815-8.666185 20.823593-7.730667 31.92463.026963.319222.070778.668778.303815.889296.195.184889.482445.235445.751593.234963 1.552778-.001444 2.741074-1.331296 3.676592-2.571111 3.764704-4.988148 7.022408-10.358111 9.706667-16.001555 1.141111-2.398741 2.184-4.863926 2.761296-7.456704.154556-.69237.274926-1.415074.120371-2.108407-.276371-1.236926-1.356334-2.11563-2.425223-2.797408-2.300518-1.469-4.876444-2.505148-7.553481-3.040074" fill="#fff"/><path d="m529.615089 367.851515c19.551037-21.216 37.821333-43.602 54.671741-67.020778 16.977518-23.595963 32.514926-48.228556 46.490407-73.717704 7.870778-14.353926 15.235519-28.980852 22.102889-43.840333.387111-.838259-.857519-1.573-1.247519-.728963-12.077481 26.13337-25.71737 51.53537-40.858518 76.022556-15.328926 24.791963-32.174037 48.648407-50.42363 71.377222-10.160703 12.654296-20.759074 24.952778-31.756592 36.886778-.629297.68274.389518 1.706851 1.021222 1.021222" fill="#fff"/><path d="m73.2593333 374.532407h2.7930741v-53.063592h-2.7930741z" fill="#143166" mask="url(#b)"/><path d="m511.985067 283.013467c2.931259 9.815963 1.080444 20.319963-.02263 30.504259-1.103556 10.185259-1.221518 21.250667 4.509556 29.741593 2.301963 3.409851 5.413296 6.179333 8.490444 8.909333 3.517704 3.121444 7.034926 6.242889 10.553111 9.363852 5.432556-13.832482 6.071-29.497482 1.781963-43.726223-4.289037-14.229222-13.478111-26.931185-25.650926-35.456777" fill="#4b7bec" mask="url(#b)"/><path d="m461.806174 305.429126c7.771593 7.272296 9.689333 18.19663 12.435222 28.353 2.745889 10.155889 7.116297 20.510148 17.938556 24.788593 4.345852 1.717925 9.468815 2.331333 14.532555 2.929333 5.787889.684185 11.57626 1.36837 17.36463 2.052555 1.317333-16.272148-4.264-31.226481-15.580741-41.743481-11.316259-10.517482-28.295222-16.530222-47.395592-16.783963" fill="#4b7bec" mask="url(#b)"/><path d="m559.94823 242.490493c-2.899 12.360592.169963 25.218074 2.289444 37.736111 2.120445 12.518037 3.086778 26.19837-3.374222 37.127518-2.594704 4.389185-6.238556 8.045556-9.842926 11.651852-4.120519 4.121963-8.241037 8.244407-12.361074 12.365889-7.746556-16.709815-9.698-36.040815-5.446519-53.962037 4.251-17.921222 14.677482-34.31663 29.104593-45.766259" fill="#4b7bec" mask="url(#b)"/><path d="m60.0597111 364.536611c1.7911111 7.377259 7.2645926 13.494963 13.8112963 17.339593 6.5467037 3.843666 14.104037 5.632852 21.632963 6.604963 3.3925185.438629 6.8360736.721259 10.2295556.293703 3.535518-.445851 6.923704-1.649074 10.307074-2.766592 11.548815-3.815259 23.917111-6.73063 35.804407-4.15663 4.811445 1.041445 9.578593 2.978445 14.477186 2.489259 8.109592-.809851 14.364037-8.511148 15.423296-16.591851 1.059259-8.080704-2.162333-16.208112-6.809111-22.903593-2.248519-3.239889-4.896667-6.291519-8.261259-8.348889-8.575186-5.242852-19.497112-3.009741-29.536963-3.473407-3.284667-.151667-6.648297-.643741-9.500593-2.280297-4.023741-2.307259-6.514444-6.566926-10.129889-9.472666-3.332333-2.678963-7.494259-4.105593-11.650407-5.108519-9.2752596-2.238407-19.6179633-2.451704-27.77763 2.493593-5.5346296 3.354-9.5631851 8.811592-12.1781111 14.730926-2.6149259 5.919815-3.9255185 12.324-4.9929629 18.707-.7520741 4.496555-1.3717408 9.238185.2118518 13.51374" fill="#0e4587" mask="url(#b)"/><path d="m546.59227 250.953107c-1.892703-13.238814.133852-39.065 3.781556-51.930666 1.146407-4.045889 3.371815-8.699889 7.555889-9.117815 5.741185-.573926 8.412926 6.86737 9.032111 12.603741-3.444519-18.577-1.263889-38.158852 6.182222-55.523 2.072296-4.833593 6.759519-10.34463 11.497296-8.061926 2.496963 1.203222 3.585593 4.121963 4.331889 6.791296 2.994815 10.715852 4.193223 21.931482 3.530223 33.037815-.535889-4.678556-.490149-9.679222 1.866222-13.755926 2.35637-4.077667 7.663259-6.752778 11.948444-4.80037 4.522556 2.059777 5.805704 7.779296 6.372889 12.716407 2.567741 22.345074 2.038111 45.044518-1.568185 67.24563-1.939889 11.942185-4.881741 24.016777-11.523296 34.129814-6.641074 10.113037-17.588037 18.042556-29.682852 18.356-5.515852.143-11.391371-1.514259-14.918222-5.757074-2.472889-2.976037-3.525889-6.85437-4.392556-10.625333-3.451741-15.016926-5.001148-30.470556-4.600556-45.874111" fill="#0e4587" mask="url(#b)"/><path d="m639.551804 170.563996c-7.716704 2.145-14.654852 6.989185-19.327148 13.494-4.283741 5.964111-6.991112 13.527704-13.298519 17.288556-3.987148 2.376592-8.785111 2.811852-13.312 3.840296-8.442296 1.919185-16.998222 6.836074-19.779259 15.035704-2.166667 6.387333-.427074 13.34137-.02263 20.073926.424185 7.056592-.772778 14.454074-4.839852 20.236185-5.486481 7.800963-15.159444 11.446259-21.986852 18.105148-9.555481 9.319556-12.496851 23.340778-14.538333 36.531926-2.041481 13.190667-3.928407 27.151704-12.161259 37.658593-2.184482 2.788259-4.919778 5.628518-4.915445 9.170777.005778 4.772926 5.439778 8.118741 10.176112 7.532778 4.736814-.585963 8.654629-3.918778 11.861296-7.453333 3.207148-3.535037 6.10037-7.489445 10.136148-10.037445 6.344481-4.005444 14.345259-3.869185 21.658481-5.547148 12.411149-2.847481 23.180445-11.274852 30.096445-21.966629 6.916-10.69226 10.166481-23.491963 10.593555-36.218482.144926-4.313592.007704-8.784148 1.712149-12.749629 1.344296-3.128186 3.734851-5.681 6.229407-7.998371 5.783074-5.371407 12.360111-9.842444 18.068074-15.293778 5.707963-5.451333 10.648445-12.193518 11.890667-19.98774 1.954815-12.266704-5.442667-25.293667-.941297-36.870889 1.62163-4.171074 4.717075-7.819741 5.339149-12.251778 1.034222-7.359926-5.028112-14.402556-12.274408-12.750111" fill="#1b54af" mask="url(#b)"/><path d="m520.496359 368.843656c34.148593-37.063963 63.78426-78.26 87.998445-122.462408 6.784074-12.384185 13.133852-25.002852 19.058963-37.820852.774703-1.676518-1.714556-3.146-2.494556-1.458407-21.041704 45.519741-47.584815 88.487148-78.976444 127.600296-8.839037 11.012926-18.060852 21.713371-27.629334 32.098926-1.258111 1.365482.779519 3.413704 2.042926 2.042445" fill="#2c5fc4" mask="url(#b)"/><path d="m157.865837 233.519144c6.091222-4.887037 10.114482-11.83 13.99763-18.605888 2.399703-4.187445 4.799407-8.374889 7.199111-12.561852 2.285592-3.989074 4.573111-7.980556 6.590518-12.111185 6.365185-13.03226 10.221852-27.71263 20.057074-38.37263 2.067963-2.240333 4.426741-4.299148 7.244852-5.46337 4.031926-1.665926 8.573741-1.350556 12.917185-.948519 5.249112.485815 10.625815 1.098741 15.317852 3.50037 2.957741 1.51426 5.525 3.683334 7.979593 5.922223 8.211185 7.490888 15.493592 15.998185 21.627667 25.266703-4.76763 4.186-9.357112 8.574704-13.752075 13.150223-3.446925-3.677556-6.894333-7.354149-10.341259-11.031704.492074 5.299666-1.781963 10.510741-4.842259 14.865259-3.060296 4.354519-6.914556 8.088889-10.197778 12.278259-2.516222 3.211-4.688185 6.679111-6.695481 10.231-5.438815 9.625297-8.151482 24.090926-11.096223 34.747556-10.456814 1.391481-21.638259-9.280556-31.548592-12.895519-9.138037-3.333777-20.590556-3.284185-30.276519-4.17974" fill="#273d76" mask="url(#b)"/><path d="m242.231793 120.915456c1.541222-1.811334 3.119037-3.686704 3.843666-5.951593.72463-2.264889.387111-5.043037-1.441074-6.563556-1.097778-.91337-2.552333-1.252333-3.957778-1.500296-4.129666-.728963-8.528-.888333-12.373111.785296-5.236111 2.279815-8.522703 7.509667-10.93637 12.686074-2.413185 5.175926-4.368482 10.730297-8.238148 14.930741-4.399297 4.775815-10.813111 7.279519-15.327963 11.945556-3.494593 3.611111-5.701222 8.516444-5.771519 13.541185-.070777 5.024741 2.08 10.100518 5.941 13.317296 3.860519 3.216297 9.401889 4.40363 14.154593 2.770926 6.342074-2.179666 10.24063-8.653666 12.078444-15.103592.864741-3.03526 1.396778-6.17163 1.486334-9.326778.083777-2.922593 7.351259-10.952259 8.090814-13.780963 1.095852-4.190333-3.280814-2.414148-.222925-5.482148-.624963-1.076593-1.259556-2.178704-1.503667-3.399741s-.030333-2.605296.853667-3.482074c.884-.877259 2.517666-1.002445 3.327518-.056333.281667.328851.487741.780963.904704.898444.283592.079444.583555-.026481.856555-.137222 3.574037-1.445889 6.681519-4.020371 8.766334-7.26363" fill="#1f1714" mask="url(#b)"/><g fill="#76a0f4"><path d="m247.861948 67.3473667c0 2.6592222-1.078037 4.8148148-2.407407 4.8148148-1.329371 0-2.407408-2.1555926-2.407408-4.8148148 0-2.6592223 1.078037-4.8148148 2.407408-4.8148148 1.32937 0 2.407407 2.1555925 2.407407 4.8148148" mask="url(#b)"/><path d="m329.7138 166.532552c0 1.861407-.754481 3.37037-1.685185 3.37037s-1.685185-1.508963-1.685185-3.37037c0-1.861408.754481-3.370371 1.685185-3.370371s1.685185 1.508963 1.685185 3.370371" mask="url(#b)"/><path d="m122.676763 150.643663c0 1.329852-.538778 2.407407-1.203704 2.407407s-1.203703-1.077555-1.203703-2.407407.538777-2.407407 1.203703-2.407407 1.203704 1.077555 1.203704 2.407407" mask="url(#b)"/><path d="m388.695281 215.402922c0 1.994778-.808407 3.611111-1.805555 3.611111s-1.805556-1.616333-1.805556-3.611111.808408-3.611111 1.805556-3.611111 1.805555 1.616333 1.805555 3.611111" mask="url(#b)"/><path d="m525.195281 93.8288481c0 2.3934445-.970185 4.3333334-2.166666 4.3333334-1.196482 0-2.166667-1.9398889-2.166667-4.3333334 0-2.3934444.970185-4.3333333 2.166667-4.3333333 1.196481 0 2.166666 1.9398889 2.166666 4.3333333" mask="url(#b)"/><path d="m387.491578 104.902922c0 1.329852-.538778 2.407408-1.203704 2.407408s-1.203704-1.077556-1.203704-2.407408.538778-2.407407 1.203704-2.407407 1.203704 1.077555 1.203704 2.407407" mask="url(#b)"/><path d="m147.7138 202.162181c0 2.127186-.862333 3.851852-1.925926 3.851852s-1.925926-1.724666-1.925926-3.851852c0-2.127185.862333-3.851851 1.925926-3.851851s1.925926 1.724666 1.925926 3.851851" mask="url(#b)"/></g></g></svg>